<svg xmlns="http://www.w3.org/2000/svg" xmlns:xlink="http://www.w3.org/1999/xlink" version="1.1" x="0px" y="0px" viewBox="0 0 100 125" style="enable-background:new 0 0 100 100;" xml:space="preserve"><path d="M90.3,33.9c0-4.4-3.6-8-8-8H66.2v-5.1c0-3.7-3-6.6-6.6-6.6H40.5c-3.7,0-6.6,3-6.6,6.6v5.1H17.7c-4.4,0-8,3.6-8,8v27.6  c0,1.7,0.7,3.3,1.9,4.5v14.6c0,2.9,2.4,5.3,5.3,5.3h66.2c2.9,0,5.3-2.4,5.3-5.3V66c1.1-1.2,1.9-2.7,1.9-4.5V33.9z M59.5,18.1  c0.7,0,1.3,0.2,1.7,0.6H38.8c0.5-0.4,1.1-0.6,1.7-0.6H59.5z M37.8,22.7h24.3v3.1H37.8V22.7z M13.7,33.9c0-2.2,1.8-4,4-4h64.6  c2.2,0,4,1.8,4,4v27.6c0,1.2-0.9,2.2-2.1,2.4l-28.1,2.9v-4.4c0-1.9-1.5-3.4-3.4-3.4h-5.4c-1.9,0-3.4,1.5-3.4,3.4v4.4l-28.1-2.9  c-1.2-0.1-2.1-1.1-2.1-2.4V33.9z M52.1,63v9.7h-4.2V63H52.1z M83.1,81.9H16.9c-0.7,0-1.3-0.6-1.3-1.3V67.9l28.3,3v2.5  c0,1.9,1.5,3.4,3.4,3.4h5.4c1.9,0,3.4-1.5,3.4-3.4v-2.5l28.3-3v12.8C84.4,81.3,83.8,81.9,83.1,81.9z"/><text x="0" y="115" fill="#000000" font-size="5px" font-weight="bold" font-family="'Helvetica Neue', Helvetica, Arial-Unicode, Arial, Sans-serif">Created by Gonzague De Sazilly</text><text x="0" y="120" fill="#000000" font-size="5px" font-weight="bold" font-family="'Helvetica Neue', Helvetica, Arial-Unicode, Arial, Sans-serif">from the Noun Project</text></svg>