<svg xmlns="http://www.w3.org/2000/svg" data-name="Layer 1" viewBox="0 0 512 640" x="0px" y="0px"><path d="M81.07,114.11l8.52-2.98c2.85-.99,4.75-3.68,4.75-6.69v-9.57c0-2.87,2.33-5.2,5.2-5.2h66.9c2.87,0,5.2,2.33,5.2,5.2v9.57c0,3.02,1.91,5.7,4.75,6.69l8.52,2.98c2.66,.93,5.44-1.05,5.44-3.86v-32.51c0-16.38-13.28-29.66-29.66-29.66h-41.16c-10.46,0-20.15,5.51-25.5,14.51-10.17,0-18.41,8.24-18.41,18.41v29.25c0,2.82,2.78,4.79,5.44,3.86Z"/><path d="M262.98,32.45c-35.15-47.56-100.06,18.4-6.62,66.54,4.15,2.14,9.08,2.14,13.23,0,93.45-48.14,28.54-114.1-6.62-66.54Z"/><path d="M427.73,290.45c-.56-.02-1.12-.03-1.68-.03-13.31,0-25.66,7.19-32.23,18.77l-5.02,8.85-5.02-8.85c-6.57-11.58-18.92-18.77-32.23-18.77-.56,0-1.12,.01-1.68,.03-12.12,.49-23.13,6.51-30.22,16.53-7.29,10.3-9.35,23.11-5.66,35.14l1.91,6.22v147.66c0,1.72,1.25,3.18,2.94,3.46,1.7,.27,3.34-.72,3.88-2.35l11.87-35.82c7.92-23.89,8.2-49.24,.81-73.3l-12.63-41.11c-.02-.06-.03-.12-.05-.18l-2.04-6.64c-3.05-9.94-1.35-20.53,4.68-29.04,5.83-8.23,14.86-13.18,24.79-13.58,.46-.02,.93-.03,1.39-.03,10.8,0,20.82,5.83,26.14,15.23l8.07,14.22c.62,1.1,1.78,1.77,3.04,1.77s2.42-.68,3.04-1.77l8.07-14.22c5.33-9.39,15.35-15.23,26.14-15.23,.47,0,.93,0,1.39,.03,9.93,.4,18.96,5.35,24.79,13.58,6.03,8.51,7.73,19.1,4.68,29.04l-14.72,47.92c-7.39,24.06-7.11,49.41,.81,73.3l11.87,35.82c.49,1.47,1.85,2.4,3.32,2.4,.36,0,.74-.06,1.1-.18,1.83-.61,2.83-2.59,2.22-4.42l-11.87-35.82c-7.46-22.5-7.72-46.38-.76-69.04l5.81-18.91v80.05c0,1.93,1.57,3.5,3.5,3.5s3.5-1.57,3.5-3.5v-102.84l1.91-6.22c3.7-12.04,1.63-24.84-5.66-35.14-7.09-10.01-18.1-16.04-30.22-16.53Zm-104.83,80.68l5.81,18.91c6.96,22.66,6.7,46.54-.76,69.04l-5.05,15.23v-103.18Z"/><path d="M216.28,233.96l-44.76-17.49v-17.62c8.36-8.97,14.57-19.8,18.02-31.64,10.83-1.26,19.66-9.96,20.9-20.94l1.07-9.46c.44-3.86-.79-7.73-3.38-10.62-2.58-2.89-6.29-4.56-10.17-4.56h-4.05c-3.97,0-7.22,3.1-7.4,7.07l-.93,19.94c-1.19,25.58-16.1,48.69-38.91,60.32-8.57,4.37-18.8,4.37-27.37,0-22.81-11.63-37.72-34.74-38.91-60.32l-.94-20.27c-.18-3.96-3.44-7.07-7.4-7.07h-4.05c-3.88,0-7.59,1.66-10.17,4.56s-3.82,6.77-3.38,10.62l1.07,9.46c1.24,10.95,10.03,19.64,20.82,20.93,3.43,11.97,9.68,22.92,18.12,31.97v17.63l-44.76,17.49c-22.61,8.83-37.22,30.23-37.22,54.5v207.54c0,1.93,1.57,3.5,3.5,3.5s3.5-1.57,3.5-3.5v-207.54c0-21.37,12.86-40.2,32.76-47.98l43.31-16.92,5.47,21.21-9.24,13.73c-2.15,3.2-2.89,6.96-2.33,10.53l-10.02-8.69c-1.62-1.41-2.46-3.52-2.23-5.66l1.03-9.75c.2-1.92-1.19-3.65-3.11-3.85-1.92-.2-3.65,1.19-3.85,3.11l-1.03,9.75c-.47,4.41,1.25,8.78,4.61,11.68l14.38,12.47c.49,.43,.64,1.13,.35,1.72l-7.5,15.44c-1.51,3.1-.99,6.76,1.31,9.33l46.18,51.41v140.01c0,1.93,1.57,3.5,3.5,3.5s3.5-1.57,3.5-3.5v-140.22l45.99-51.2c2.3-2.57,2.82-6.23,1.31-9.33l-7.5-15.44c-.28-.59-.14-1.29,.35-1.72l14.38-12.47c3.35-2.91,5.07-7.27,4.61-11.68l-2.27-21.38,20.26,7.92c19.9,7.78,32.76,26.61,32.76,47.98v207.54c0,1.93,1.57,3.5,3.5,3.5s3.5-1.57,3.5-3.5v-207.54c0-24.27-14.61-45.66-37.22-54.5Zm-23.69-84.99l.93-19.94c.01-.22,.19-.39,.41-.39h4.05c1.92,0,3.68,.79,4.95,2.22s1.86,3.27,1.65,5.17l-1.07,9.46c-.78,6.86-5.74,12.45-12.16,14.26,.66-3.53,1.09-7.13,1.26-10.78Zm-130.1-3.81l-1.07-9.46c-.22-1.9,.37-3.74,1.65-5.17,1.28-1.43,3.04-2.22,4.95-2.22h4.05c.22,0,.4,.17,.41,.39l.94,20.27c.16,3.53,.56,7.01,1.19,10.44-6.4-1.83-11.34-7.41-12.11-14.25Zm70.51,195.39l-28.94-112.1,26.77,22.66c.65,.55,1.46,.83,2.26,.83s1.61-.28,2.26-.83l26.53-22.46-28.89,111.9Zm31.53-123.3l-31.43,26.61-31.62-26.77v-11.6c4.46,3.74,9.36,7.02,14.66,9.72,5.28,2.69,11.07,4.04,16.86,4.04s11.58-1.35,16.87-4.04c5.3-2.7,10.2-5.98,14.66-9.72v11.76Zm22.02,43.1l-9.01,7.82c1.12-5.28-.22-11.02-4.17-15.3l-8.2-8.9,5.26-20.4,15.7,6.13,2.65,24.99c.23,2.14-.61,4.25-2.23,5.66Z"/><path d="M57.23,289.94c-1.93,0-3.5,1.57-3.5,3.5v202.56c0,1.93,1.57,3.5,3.5,3.5s3.5-1.57,3.5-3.5v-202.56c0-1.93-1.57-3.5-3.5-3.5Z"/><path d="M208.76,289.94c-1.93,0-3.5,1.57-3.5,3.5v202.56c0,1.93,1.57,3.5,3.5,3.5s3.5-1.57,3.5-3.5v-202.56c0-1.93-1.57-3.5-3.5-3.5Z"/><path d="M475.56,259.39l-18.07-7.85v-121.04c0-38.4-31.13-69.53-69.53-69.53h0c-38.4,0-69.53,31.13-69.53,69.53v121.04l-18.07,7.85c-14.54,6.32-23.94,20.65-23.94,36.51v200.1c0,1.93,1.57,3.5,3.5,3.5s3.5-1.57,3.5-3.5v-200.1c0-13.07,7.75-24.88,19.73-30.09l51.14-22.22c8.12-3.53,13.37-11.53,13.37-20.39v-7.86c1.5,.91,3.03,1.77,4.61,2.57,4.91,2.5,10.31,3.76,15.7,3.76s10.78-1.25,15.7-3.76c1.57-.8,3.11-1.66,4.61-2.57v7.86c0,8.86,5.25,16.86,13.37,20.39l51.14,22.22c11.99,5.21,19.73,17.02,19.73,30.09v200.1c0,1.93,1.57,3.5,3.5,3.5s3.5-1.57,3.5-3.5v-200.1c0-15.86-9.4-30.19-23.94-36.51Zm-75.08-47.71c-7.84,3.99-17.2,3.99-25.03,0-20.98-10.69-34.7-31.95-35.79-55.48l-.11-2.27c-.01-.31-.08-.59-.17-.87l7.96-1.89c17.73-4.21,32.63-16.14,40.62-32.52h0c7.99,16.38,22.89,28.31,40.62,32.52l7.96,1.89c-.09,.28-.15,.57-.17,.87l-.11,2.27c-1.09,23.53-14.81,44.78-35.79,55.48Z"/><path d="M106.17,465.02h-21.77c-1.93,0-3.5,1.57-3.5,3.5s1.57,3.5,3.5,3.5h21.77c1.93,0,3.5-1.57,3.5-3.5s-1.57-3.5-3.5-3.5Z"/><path d="M181.78,465.02h-21.77c-1.93,0-3.5,1.57-3.5,3.5s1.57,3.5,3.5,3.5h21.77c1.93,0,3.5-1.57,3.5-3.5s-1.57-3.5-3.5-3.5Z"/><text x="0" y="527" fill="#000000" font-size="5px" font-weight="bold" font-family="'Helvetica Neue', Helvetica, Arial-Unicode, Arial, Sans-serif">Created by iconfield</text><text x="0" y="532" fill="#000000" font-size="5px" font-weight="bold" font-family="'Helvetica Neue', Helvetica, Arial-Unicode, Arial, Sans-serif">from the Noun Project</text></svg>